%TF.GenerationSoftware,KiCad,Pcbnew,5.1.8*%
%TF.CreationDate,2020-12-03T05:05:08-06:00*%
%TF.ProjectId,fistion,66697374-696f-46e2-9e6b-696361645f70,rev?*%
%TF.SameCoordinates,Original*%
%TF.FileFunction,Legend,Top*%
%TF.FilePolarity,Positive*%
%FSLAX46Y46*%
G04 Gerber Fmt 4.6, Leading zero omitted, Abs format (unit mm)*
G04 Created by KiCad (PCBNEW 5.1.8) date 2020-12-03 05:05:08*
%MOMM*%
%LPD*%
G01*
G04 APERTURE LIST*
%ADD10C,0.300000*%
%ADD11C,0.120000*%
%ADD12C,0.381000*%
%ADD13C,0.150000*%
G04 APERTURE END LIST*
D10*
X134171428Y-99778571D02*
X134171428Y-100850000D01*
X134100000Y-101064285D01*
X133957142Y-101207142D01*
X133742857Y-101278571D01*
X133600000Y-101278571D01*
X135600000Y-101278571D02*
X134885714Y-101278571D01*
X134885714Y-99778571D01*
X136957142Y-101135714D02*
X136885714Y-101207142D01*
X136671428Y-101278571D01*
X136528571Y-101278571D01*
X136314285Y-101207142D01*
X136171428Y-101064285D01*
X136100000Y-100921428D01*
X136028571Y-100635714D01*
X136028571Y-100421428D01*
X136100000Y-100135714D01*
X136171428Y-99992857D01*
X136314285Y-99850000D01*
X136528571Y-99778571D01*
X136671428Y-99778571D01*
X136885714Y-99850000D01*
X136957142Y-99921428D01*
X138028571Y-99778571D02*
X138028571Y-100850000D01*
X137957142Y-101064285D01*
X137814285Y-101207142D01*
X137600000Y-101278571D01*
X137457142Y-101278571D01*
X139457142Y-101278571D02*
X138742857Y-101278571D01*
X138742857Y-99778571D01*
X140814285Y-101135714D02*
X140742857Y-101207142D01*
X140528571Y-101278571D01*
X140385714Y-101278571D01*
X140171428Y-101207142D01*
X140028571Y-101064285D01*
X139957142Y-100921428D01*
X139885714Y-100635714D01*
X139885714Y-100421428D01*
X139957142Y-100135714D01*
X140028571Y-99992857D01*
X140171428Y-99850000D01*
X140385714Y-99778571D01*
X140528571Y-99778571D01*
X140742857Y-99850000D01*
X140814285Y-99921428D01*
X141885714Y-99778571D02*
X141885714Y-100850000D01*
X141814285Y-101064285D01*
X141671428Y-101207142D01*
X141457142Y-101278571D01*
X141314285Y-101278571D01*
X143314285Y-101278571D02*
X142600000Y-101278571D01*
X142600000Y-99778571D01*
X144671428Y-101135714D02*
X144600000Y-101207142D01*
X144385714Y-101278571D01*
X144242857Y-101278571D01*
X144028571Y-101207142D01*
X143885714Y-101064285D01*
X143814285Y-100921428D01*
X143742857Y-100635714D01*
X143742857Y-100421428D01*
X143814285Y-100135714D01*
X143885714Y-99992857D01*
X144028571Y-99850000D01*
X144242857Y-99778571D01*
X144385714Y-99778571D01*
X144600000Y-99850000D01*
X144671428Y-99921428D01*
X145742857Y-99778571D02*
X145742857Y-100850000D01*
X145671428Y-101064285D01*
X145528571Y-101207142D01*
X145314285Y-101278571D01*
X145171428Y-101278571D01*
X147171428Y-101278571D02*
X146457142Y-101278571D01*
X146457142Y-99778571D01*
X148528571Y-101135714D02*
X148457142Y-101207142D01*
X148242857Y-101278571D01*
X148100000Y-101278571D01*
X147885714Y-101207142D01*
X147742857Y-101064285D01*
X147671428Y-100921428D01*
X147600000Y-100635714D01*
X147600000Y-100421428D01*
X147671428Y-100135714D01*
X147742857Y-99992857D01*
X147885714Y-99850000D01*
X148100000Y-99778571D01*
X148242857Y-99778571D01*
X148457142Y-99850000D01*
X148528571Y-99921428D01*
D11*
%TO.C,J4*%
X149170000Y-103970000D02*
X151830000Y-103970000D01*
X149170000Y-101370000D02*
X149170000Y-103970000D01*
X151830000Y-101370000D02*
X151830000Y-103970000D01*
X149170000Y-101370000D02*
X151830000Y-101370000D01*
X149170000Y-100100000D02*
X149170000Y-98770000D01*
X149170000Y-98770000D02*
X150500000Y-98770000D01*
%TO.C,PUSH2*%
X147550000Y-90500000D02*
X147550000Y-90300000D01*
X147550000Y-84300000D02*
X147550000Y-84500000D01*
X154250000Y-84300000D02*
X154250000Y-84500000D01*
X154250000Y-90500000D02*
X154250000Y-90300000D01*
X154250000Y-88600000D02*
X154250000Y-86200000D01*
X147550000Y-88600000D02*
X147550000Y-86200000D01*
X147550000Y-90500000D02*
X154250000Y-90500000D01*
X154250000Y-84300000D02*
X147550000Y-84300000D01*
D12*
%TO.C,U1*%
X157240000Y-78630000D02*
X126760000Y-78630000D01*
X126760000Y-78630000D02*
X126760000Y-96410000D01*
X126760000Y-96410000D02*
X157240000Y-96410000D01*
X157240000Y-96410000D02*
X159780000Y-96410000D01*
X159780000Y-96410000D02*
X159780000Y-78630000D01*
X159780000Y-78630000D02*
X157240000Y-78630000D01*
D11*
%TO.C,R2*%
X150227064Y-93135000D02*
X149772936Y-93135000D01*
X150227064Y-91665000D02*
X149772936Y-91665000D01*
%TO.C,U1*%
D10*
X128216571Y-92809714D02*
X129216571Y-92809714D01*
X128359428Y-92809714D02*
X128288000Y-92738285D01*
X128216571Y-92595428D01*
X128216571Y-92381142D01*
X128288000Y-92238285D01*
X128430857Y-92166857D01*
X129216571Y-92166857D01*
X129216571Y-91452571D02*
X128216571Y-91452571D01*
X127716571Y-91452571D02*
X127788000Y-91524000D01*
X127859428Y-91452571D01*
X127788000Y-91381142D01*
X127716571Y-91452571D01*
X127859428Y-91452571D01*
X129145142Y-90095428D02*
X129216571Y-90238285D01*
X129216571Y-90524000D01*
X129145142Y-90666857D01*
X129073714Y-90738285D01*
X128930857Y-90809714D01*
X128502285Y-90809714D01*
X128359428Y-90738285D01*
X128288000Y-90666857D01*
X128216571Y-90524000D01*
X128216571Y-90238285D01*
X128288000Y-90095428D01*
X129145142Y-88881142D02*
X129216571Y-89024000D01*
X129216571Y-89309714D01*
X129145142Y-89452571D01*
X129002285Y-89524000D01*
X128430857Y-89524000D01*
X128288000Y-89452571D01*
X128216571Y-89309714D01*
X128216571Y-89024000D01*
X128288000Y-88881142D01*
X128430857Y-88809714D01*
X128573714Y-88809714D01*
X128716571Y-89524000D01*
X129073714Y-88166857D02*
X129145142Y-88095428D01*
X129216571Y-88166857D01*
X129145142Y-88238285D01*
X129073714Y-88166857D01*
X129216571Y-88166857D01*
X128645142Y-88166857D02*
X127788000Y-88238285D01*
X127716571Y-88166857D01*
X127788000Y-88095428D01*
X128645142Y-88166857D01*
X127716571Y-88166857D01*
X128216571Y-87452571D02*
X129216571Y-87452571D01*
X128359428Y-87452571D02*
X128288000Y-87381142D01*
X128216571Y-87238285D01*
X128216571Y-87024000D01*
X128288000Y-86881142D01*
X128430857Y-86809714D01*
X129216571Y-86809714D01*
X129216571Y-85452571D02*
X128430857Y-85452571D01*
X128288000Y-85524000D01*
X128216571Y-85666857D01*
X128216571Y-85952571D01*
X128288000Y-86095428D01*
X129145142Y-85452571D02*
X129216571Y-85595428D01*
X129216571Y-85952571D01*
X129145142Y-86095428D01*
X129002285Y-86166857D01*
X128859428Y-86166857D01*
X128716571Y-86095428D01*
X128645142Y-85952571D01*
X128645142Y-85595428D01*
X128573714Y-85452571D01*
X128216571Y-84738285D02*
X129216571Y-84738285D01*
X128359428Y-84738285D02*
X128288000Y-84666857D01*
X128216571Y-84524000D01*
X128216571Y-84309714D01*
X128288000Y-84166857D01*
X128430857Y-84095428D01*
X129216571Y-84095428D01*
X129216571Y-83166857D02*
X129145142Y-83309714D01*
X129073714Y-83381142D01*
X128930857Y-83452571D01*
X128502285Y-83452571D01*
X128359428Y-83381142D01*
X128288000Y-83309714D01*
X128216571Y-83166857D01*
X128216571Y-82952571D01*
X128288000Y-82809714D01*
X128359428Y-82738285D01*
X128502285Y-82666857D01*
X128930857Y-82666857D01*
X129073714Y-82738285D01*
X129145142Y-82809714D01*
X129216571Y-82952571D01*
X129216571Y-83166857D01*
D13*
X130131904Y-93857191D02*
X130131904Y-93781000D01*
X130170000Y-93704810D01*
X130208095Y-93666714D01*
X130284285Y-93628619D01*
X130436666Y-93590524D01*
X130627142Y-93590524D01*
X130779523Y-93628619D01*
X130855714Y-93666714D01*
X130893809Y-93704810D01*
X130931904Y-93781000D01*
X130931904Y-93857191D01*
X130893809Y-93933381D01*
X130855714Y-93971476D01*
X130779523Y-94009571D01*
X130627142Y-94047667D01*
X130436666Y-94047667D01*
X130284285Y-94009571D01*
X130208095Y-93971476D01*
X130170000Y-93933381D01*
X130131904Y-93857191D01*
X130931904Y-92828619D02*
X130931904Y-93285762D01*
X130931904Y-93057191D02*
X130131904Y-93057191D01*
X130246190Y-93133381D01*
X130322380Y-93209571D01*
X130360476Y-93285762D01*
X130131904Y-92333381D02*
X130131904Y-92257191D01*
X130170000Y-92181000D01*
X130208095Y-92142905D01*
X130284285Y-92104810D01*
X130436666Y-92066714D01*
X130627142Y-92066714D01*
X130779523Y-92104810D01*
X130855714Y-92142905D01*
X130893809Y-92181000D01*
X130931904Y-92257191D01*
X130931904Y-92333381D01*
X130893809Y-92409571D01*
X130855714Y-92447667D01*
X130779523Y-92485762D01*
X130627142Y-92523857D01*
X130436666Y-92523857D01*
X130284285Y-92485762D01*
X130208095Y-92447667D01*
X130170000Y-92409571D01*
X130131904Y-92333381D01*
X138551904Y-93590524D02*
X138551904Y-94047667D01*
X138551904Y-93819095D02*
X137751904Y-93819095D01*
X137866190Y-93895286D01*
X137942380Y-93971476D01*
X137980476Y-94047667D01*
X138551904Y-92828619D02*
X138551904Y-93285762D01*
X138551904Y-93057191D02*
X137751904Y-93057191D01*
X137866190Y-93133381D01*
X137942380Y-93209571D01*
X137980476Y-93285762D01*
X137751904Y-92104810D02*
X137751904Y-92485762D01*
X138132857Y-92523857D01*
X138094761Y-92485762D01*
X138056666Y-92409571D01*
X138056666Y-92219095D01*
X138094761Y-92142905D01*
X138132857Y-92104810D01*
X138209047Y-92066714D01*
X138399523Y-92066714D01*
X138475714Y-92104810D01*
X138513809Y-92142905D01*
X138551904Y-92219095D01*
X138551904Y-92409571D01*
X138513809Y-92485762D01*
X138475714Y-92523857D01*
X140291904Y-93857191D02*
X140291904Y-93781000D01*
X140330000Y-93704810D01*
X140368095Y-93666714D01*
X140444285Y-93628619D01*
X140596666Y-93590524D01*
X140787142Y-93590524D01*
X140939523Y-93628619D01*
X141015714Y-93666714D01*
X141053809Y-93704810D01*
X141091904Y-93781000D01*
X141091904Y-93857191D01*
X141053809Y-93933381D01*
X141015714Y-93971476D01*
X140939523Y-94009571D01*
X140787142Y-94047667D01*
X140596666Y-94047667D01*
X140444285Y-94009571D01*
X140368095Y-93971476D01*
X140330000Y-93933381D01*
X140291904Y-93857191D01*
X140291904Y-93095286D02*
X140291904Y-93019095D01*
X140330000Y-92942905D01*
X140368095Y-92904810D01*
X140444285Y-92866714D01*
X140596666Y-92828619D01*
X140787142Y-92828619D01*
X140939523Y-92866714D01*
X141015714Y-92904810D01*
X141053809Y-92942905D01*
X141091904Y-93019095D01*
X141091904Y-93095286D01*
X141053809Y-93171476D01*
X141015714Y-93209571D01*
X140939523Y-93247667D01*
X140787142Y-93285762D01*
X140596666Y-93285762D01*
X140444285Y-93247667D01*
X140368095Y-93209571D01*
X140330000Y-93171476D01*
X140291904Y-93095286D01*
X140368095Y-92523857D02*
X140330000Y-92485762D01*
X140291904Y-92409571D01*
X140291904Y-92219095D01*
X140330000Y-92142905D01*
X140368095Y-92104810D01*
X140444285Y-92066714D01*
X140520476Y-92066714D01*
X140634761Y-92104810D01*
X141091904Y-92561952D01*
X141091904Y-92066714D01*
X142831904Y-93857191D02*
X142831904Y-93781000D01*
X142870000Y-93704810D01*
X142908095Y-93666714D01*
X142984285Y-93628619D01*
X143136666Y-93590524D01*
X143327142Y-93590524D01*
X143479523Y-93628619D01*
X143555714Y-93666714D01*
X143593809Y-93704810D01*
X143631904Y-93781000D01*
X143631904Y-93857191D01*
X143593809Y-93933381D01*
X143555714Y-93971476D01*
X143479523Y-94009571D01*
X143327142Y-94047667D01*
X143136666Y-94047667D01*
X142984285Y-94009571D01*
X142908095Y-93971476D01*
X142870000Y-93933381D01*
X142831904Y-93857191D01*
X142908095Y-93285762D02*
X142870000Y-93247667D01*
X142831904Y-93171476D01*
X142831904Y-92981000D01*
X142870000Y-92904810D01*
X142908095Y-92866714D01*
X142984285Y-92828619D01*
X143060476Y-92828619D01*
X143174761Y-92866714D01*
X143631904Y-93323857D01*
X143631904Y-92828619D01*
X143631904Y-92447667D02*
X143631904Y-92295286D01*
X143593809Y-92219095D01*
X143555714Y-92181000D01*
X143441428Y-92104810D01*
X143289047Y-92066714D01*
X142984285Y-92066714D01*
X142908095Y-92104810D01*
X142870000Y-92142905D01*
X142831904Y-92219095D01*
X142831904Y-92371476D01*
X142870000Y-92447667D01*
X142908095Y-92485762D01*
X142984285Y-92523857D01*
X143174761Y-92523857D01*
X143250952Y-92485762D01*
X143289047Y-92447667D01*
X143327142Y-92371476D01*
X143327142Y-92219095D01*
X143289047Y-92142905D01*
X143250952Y-92104810D01*
X143174761Y-92066714D01*
X156331904Y-93546095D02*
X155950952Y-93812762D01*
X156331904Y-94003238D02*
X155531904Y-94003238D01*
X155531904Y-93698476D01*
X155570000Y-93622286D01*
X155608095Y-93584191D01*
X155684285Y-93546095D01*
X155798571Y-93546095D01*
X155874761Y-93584191D01*
X155912857Y-93622286D01*
X155950952Y-93698476D01*
X155950952Y-94003238D01*
X156103333Y-93241334D02*
X156103333Y-92860381D01*
X156331904Y-93317524D02*
X155531904Y-93050857D01*
X156331904Y-92784191D01*
X155531904Y-92593715D02*
X156331904Y-92403238D01*
X155760476Y-92250857D01*
X156331904Y-92098476D01*
X155531904Y-91908000D01*
X153030000Y-93584190D02*
X152991904Y-93660381D01*
X152991904Y-93774667D01*
X153030000Y-93888952D01*
X153106190Y-93965143D01*
X153182380Y-94003238D01*
X153334761Y-94041333D01*
X153449047Y-94041333D01*
X153601428Y-94003238D01*
X153677619Y-93965143D01*
X153753809Y-93888952D01*
X153791904Y-93774667D01*
X153791904Y-93698476D01*
X153753809Y-93584190D01*
X153715714Y-93546095D01*
X153449047Y-93546095D01*
X153449047Y-93698476D01*
X153791904Y-93203238D02*
X152991904Y-93203238D01*
X153791904Y-92746095D01*
X152991904Y-92746095D01*
X153791904Y-92365143D02*
X152991904Y-92365143D01*
X152991904Y-92174667D01*
X153030000Y-92060381D01*
X153106190Y-91984190D01*
X153182380Y-91946095D01*
X153334761Y-91908000D01*
X153449047Y-91908000D01*
X153601428Y-91946095D01*
X153677619Y-91984190D01*
X153753809Y-92060381D01*
X153791904Y-92174667D01*
X153791904Y-92365143D01*
X151251904Y-93546095D02*
X150870952Y-93812761D01*
X151251904Y-94003238D02*
X150451904Y-94003238D01*
X150451904Y-93698476D01*
X150490000Y-93622285D01*
X150528095Y-93584190D01*
X150604285Y-93546095D01*
X150718571Y-93546095D01*
X150794761Y-93584190D01*
X150832857Y-93622285D01*
X150870952Y-93698476D01*
X150870952Y-94003238D01*
X151213809Y-93241333D02*
X151251904Y-93127047D01*
X151251904Y-92936571D01*
X151213809Y-92860380D01*
X151175714Y-92822285D01*
X151099523Y-92784190D01*
X151023333Y-92784190D01*
X150947142Y-92822285D01*
X150909047Y-92860380D01*
X150870952Y-92936571D01*
X150832857Y-93088952D01*
X150794761Y-93165142D01*
X150756666Y-93203238D01*
X150680476Y-93241333D01*
X150604285Y-93241333D01*
X150528095Y-93203238D01*
X150490000Y-93165142D01*
X150451904Y-93088952D01*
X150451904Y-92898476D01*
X150490000Y-92784190D01*
X150451904Y-92555619D02*
X150451904Y-92098476D01*
X151251904Y-92327047D02*
X150451904Y-92327047D01*
X147911904Y-94123857D02*
X148711904Y-93857191D01*
X147911904Y-93590524D01*
X148635714Y-92866714D02*
X148673809Y-92904810D01*
X148711904Y-93019095D01*
X148711904Y-93095286D01*
X148673809Y-93209571D01*
X148597619Y-93285762D01*
X148521428Y-93323857D01*
X148369047Y-93361952D01*
X148254761Y-93361952D01*
X148102380Y-93323857D01*
X148026190Y-93285762D01*
X147950000Y-93209571D01*
X147911904Y-93095286D01*
X147911904Y-93019095D01*
X147950000Y-92904810D01*
X147988095Y-92866714D01*
X148635714Y-92066714D02*
X148673809Y-92104810D01*
X148711904Y-92219095D01*
X148711904Y-92295286D01*
X148673809Y-92409571D01*
X148597619Y-92485762D01*
X148521428Y-92523857D01*
X148369047Y-92561952D01*
X148254761Y-92561952D01*
X148102380Y-92523857D01*
X148026190Y-92485762D01*
X147950000Y-92409571D01*
X147911904Y-92295286D01*
X147911904Y-92219095D01*
X147950000Y-92104810D01*
X147988095Y-92066714D01*
X145371904Y-93857191D02*
X145371904Y-93781000D01*
X145410000Y-93704810D01*
X145448095Y-93666714D01*
X145524285Y-93628619D01*
X145676666Y-93590524D01*
X145867142Y-93590524D01*
X146019523Y-93628619D01*
X146095714Y-93666714D01*
X146133809Y-93704810D01*
X146171904Y-93781000D01*
X146171904Y-93857191D01*
X146133809Y-93933381D01*
X146095714Y-93971476D01*
X146019523Y-94009571D01*
X145867142Y-94047667D01*
X145676666Y-94047667D01*
X145524285Y-94009571D01*
X145448095Y-93971476D01*
X145410000Y-93933381D01*
X145371904Y-93857191D01*
X145371904Y-93323857D02*
X145371904Y-92828619D01*
X145676666Y-93095286D01*
X145676666Y-92981000D01*
X145714761Y-92904810D01*
X145752857Y-92866714D01*
X145829047Y-92828619D01*
X146019523Y-92828619D01*
X146095714Y-92866714D01*
X146133809Y-92904810D01*
X146171904Y-92981000D01*
X146171904Y-93209571D01*
X146133809Y-93285762D01*
X146095714Y-93323857D01*
X146171904Y-92066714D02*
X146171904Y-92523857D01*
X146171904Y-92295286D02*
X145371904Y-92295286D01*
X145486190Y-92371476D01*
X145562380Y-92447667D01*
X145600476Y-92523857D01*
X136011904Y-93590524D02*
X136011904Y-94047667D01*
X136011904Y-93819095D02*
X135211904Y-93819095D01*
X135326190Y-93895286D01*
X135402380Y-93971476D01*
X135440476Y-94047667D01*
X136011904Y-92828619D02*
X136011904Y-93285762D01*
X136011904Y-93057191D02*
X135211904Y-93057191D01*
X135326190Y-93133381D01*
X135402380Y-93209571D01*
X135440476Y-93285762D01*
X135211904Y-92561952D02*
X135211904Y-92066714D01*
X135516666Y-92333381D01*
X135516666Y-92219095D01*
X135554761Y-92142905D01*
X135592857Y-92104810D01*
X135669047Y-92066714D01*
X135859523Y-92066714D01*
X135935714Y-92104810D01*
X135973809Y-92142905D01*
X136011904Y-92219095D01*
X136011904Y-92447667D01*
X135973809Y-92523857D01*
X135935714Y-92561952D01*
X133471904Y-93590524D02*
X133471904Y-94047667D01*
X133471904Y-93819095D02*
X132671904Y-93819095D01*
X132786190Y-93895286D01*
X132862380Y-93971476D01*
X132900476Y-94047667D01*
X133471904Y-92828619D02*
X133471904Y-93285762D01*
X133471904Y-93057191D02*
X132671904Y-93057191D01*
X132786190Y-93133381D01*
X132862380Y-93209571D01*
X132900476Y-93285762D01*
X133471904Y-92066714D02*
X133471904Y-92523857D01*
X133471904Y-92295286D02*
X132671904Y-92295286D01*
X132786190Y-92371476D01*
X132862380Y-92447667D01*
X132900476Y-92523857D01*
X130931904Y-82516143D02*
X130931904Y-82973286D01*
X130931904Y-82744714D02*
X130131904Y-82744714D01*
X130246190Y-82820905D01*
X130322380Y-82897095D01*
X130360476Y-82973286D01*
X130131904Y-82020905D02*
X130131904Y-81944714D01*
X130170000Y-81868524D01*
X130208095Y-81830429D01*
X130284285Y-81792333D01*
X130436666Y-81754238D01*
X130627142Y-81754238D01*
X130779523Y-81792333D01*
X130855714Y-81830429D01*
X130893809Y-81868524D01*
X130931904Y-81944714D01*
X130931904Y-82020905D01*
X130893809Y-82097095D01*
X130855714Y-82135190D01*
X130779523Y-82173286D01*
X130627142Y-82211381D01*
X130436666Y-82211381D01*
X130284285Y-82173286D01*
X130208095Y-82135190D01*
X130170000Y-82097095D01*
X130131904Y-82020905D01*
X130398571Y-81068524D02*
X130931904Y-81068524D01*
X130093809Y-81259000D02*
X130665238Y-81449476D01*
X130665238Y-80954238D01*
X136011904Y-82516143D02*
X136011904Y-82973286D01*
X136011904Y-82744714D02*
X135211904Y-82744714D01*
X135326190Y-82820905D01*
X135402380Y-82897095D01*
X135440476Y-82973286D01*
X135211904Y-82020905D02*
X135211904Y-81944714D01*
X135250000Y-81868524D01*
X135288095Y-81830429D01*
X135364285Y-81792333D01*
X135516666Y-81754238D01*
X135707142Y-81754238D01*
X135859523Y-81792333D01*
X135935714Y-81830429D01*
X135973809Y-81868524D01*
X136011904Y-81944714D01*
X136011904Y-82020905D01*
X135973809Y-82097095D01*
X135935714Y-82135190D01*
X135859523Y-82173286D01*
X135707142Y-82211381D01*
X135516666Y-82211381D01*
X135364285Y-82173286D01*
X135288095Y-82135190D01*
X135250000Y-82097095D01*
X135211904Y-82020905D01*
X135211904Y-81259000D02*
X135211904Y-81182810D01*
X135250000Y-81106619D01*
X135288095Y-81068524D01*
X135364285Y-81030429D01*
X135516666Y-80992333D01*
X135707142Y-80992333D01*
X135859523Y-81030429D01*
X135935714Y-81068524D01*
X135973809Y-81106619D01*
X136011904Y-81182810D01*
X136011904Y-81259000D01*
X135973809Y-81335190D01*
X135935714Y-81373286D01*
X135859523Y-81411381D01*
X135707142Y-81449476D01*
X135516666Y-81449476D01*
X135364285Y-81411381D01*
X135288095Y-81373286D01*
X135250000Y-81335190D01*
X135211904Y-81259000D01*
X137751904Y-82782810D02*
X137751904Y-82706619D01*
X137790000Y-82630429D01*
X137828095Y-82592333D01*
X137904285Y-82554238D01*
X138056666Y-82516143D01*
X138247142Y-82516143D01*
X138399523Y-82554238D01*
X138475714Y-82592333D01*
X138513809Y-82630429D01*
X138551904Y-82706619D01*
X138551904Y-82782810D01*
X138513809Y-82859000D01*
X138475714Y-82897095D01*
X138399523Y-82935190D01*
X138247142Y-82973286D01*
X138056666Y-82973286D01*
X137904285Y-82935190D01*
X137828095Y-82897095D01*
X137790000Y-82859000D01*
X137751904Y-82782810D01*
X137828095Y-82211381D02*
X137790000Y-82173286D01*
X137751904Y-82097095D01*
X137751904Y-81906619D01*
X137790000Y-81830429D01*
X137828095Y-81792333D01*
X137904285Y-81754238D01*
X137980476Y-81754238D01*
X138094761Y-81792333D01*
X138551904Y-82249476D01*
X138551904Y-81754238D01*
X138018571Y-81068524D02*
X138551904Y-81068524D01*
X137713809Y-81259000D02*
X138285238Y-81449476D01*
X138285238Y-80954238D01*
X140261904Y-82782810D02*
X140261904Y-82706619D01*
X140300000Y-82630429D01*
X140338095Y-82592333D01*
X140414285Y-82554238D01*
X140566666Y-82516143D01*
X140757142Y-82516143D01*
X140909523Y-82554238D01*
X140985714Y-82592333D01*
X141023809Y-82630429D01*
X141061904Y-82706619D01*
X141061904Y-82782810D01*
X141023809Y-82859000D01*
X140985714Y-82897095D01*
X140909523Y-82935190D01*
X140757142Y-82973286D01*
X140566666Y-82973286D01*
X140414285Y-82935190D01*
X140338095Y-82897095D01*
X140300000Y-82859000D01*
X140261904Y-82782810D01*
X140338095Y-82211381D02*
X140300000Y-82173286D01*
X140261904Y-82097095D01*
X140261904Y-81906619D01*
X140300000Y-81830429D01*
X140338095Y-81792333D01*
X140414285Y-81754238D01*
X140490476Y-81754238D01*
X140604761Y-81792333D01*
X141061904Y-82249476D01*
X141061904Y-81754238D01*
X140338095Y-81449476D02*
X140300000Y-81411381D01*
X140261904Y-81335190D01*
X140261904Y-81144714D01*
X140300000Y-81068524D01*
X140338095Y-81030429D01*
X140414285Y-80992333D01*
X140490476Y-80992333D01*
X140604761Y-81030429D01*
X141061904Y-81487571D01*
X141061904Y-80992333D01*
X150490000Y-82668523D02*
X150451904Y-82744714D01*
X150451904Y-82859000D01*
X150490000Y-82973285D01*
X150566190Y-83049476D01*
X150642380Y-83087571D01*
X150794761Y-83125666D01*
X150909047Y-83125666D01*
X151061428Y-83087571D01*
X151137619Y-83049476D01*
X151213809Y-82973285D01*
X151251904Y-82859000D01*
X151251904Y-82782809D01*
X151213809Y-82668523D01*
X151175714Y-82630428D01*
X150909047Y-82630428D01*
X150909047Y-82782809D01*
X151251904Y-82287571D02*
X150451904Y-82287571D01*
X151251904Y-81830428D01*
X150451904Y-81830428D01*
X151251904Y-81449476D02*
X150451904Y-81449476D01*
X150451904Y-81259000D01*
X150490000Y-81144714D01*
X150566190Y-81068523D01*
X150642380Y-81030428D01*
X150794761Y-80992333D01*
X150909047Y-80992333D01*
X151061428Y-81030428D01*
X151137619Y-81068523D01*
X151213809Y-81144714D01*
X151251904Y-81259000D01*
X151251904Y-81449476D01*
X147950000Y-82668523D02*
X147911904Y-82744714D01*
X147911904Y-82859000D01*
X147950000Y-82973285D01*
X148026190Y-83049476D01*
X148102380Y-83087571D01*
X148254761Y-83125666D01*
X148369047Y-83125666D01*
X148521428Y-83087571D01*
X148597619Y-83049476D01*
X148673809Y-82973285D01*
X148711904Y-82859000D01*
X148711904Y-82782809D01*
X148673809Y-82668523D01*
X148635714Y-82630428D01*
X148369047Y-82630428D01*
X148369047Y-82782809D01*
X148711904Y-82287571D02*
X147911904Y-82287571D01*
X148711904Y-81830428D01*
X147911904Y-81830428D01*
X148711904Y-81449476D02*
X147911904Y-81449476D01*
X147911904Y-81259000D01*
X147950000Y-81144714D01*
X148026190Y-81068523D01*
X148102380Y-81030428D01*
X148254761Y-80992333D01*
X148369047Y-80992333D01*
X148521428Y-81030428D01*
X148597619Y-81068523D01*
X148673809Y-81144714D01*
X148711904Y-81259000D01*
X148711904Y-81449476D01*
X145361904Y-82782810D02*
X145361904Y-82706619D01*
X145400000Y-82630429D01*
X145438095Y-82592333D01*
X145514285Y-82554238D01*
X145666666Y-82516143D01*
X145857142Y-82516143D01*
X146009523Y-82554238D01*
X146085714Y-82592333D01*
X146123809Y-82630429D01*
X146161904Y-82706619D01*
X146161904Y-82782810D01*
X146123809Y-82859000D01*
X146085714Y-82897095D01*
X146009523Y-82935190D01*
X145857142Y-82973286D01*
X145666666Y-82973286D01*
X145514285Y-82935190D01*
X145438095Y-82897095D01*
X145400000Y-82859000D01*
X145361904Y-82782810D01*
X146161904Y-81754238D02*
X146161904Y-82211381D01*
X146161904Y-81982810D02*
X145361904Y-81982810D01*
X145476190Y-82059000D01*
X145552380Y-82135190D01*
X145590476Y-82211381D01*
X145361904Y-81487571D02*
X145361904Y-80954238D01*
X146161904Y-81297095D01*
X142761904Y-82782810D02*
X142761904Y-82706619D01*
X142800000Y-82630429D01*
X142838095Y-82592333D01*
X142914285Y-82554238D01*
X143066666Y-82516143D01*
X143257142Y-82516143D01*
X143409523Y-82554238D01*
X143485714Y-82592333D01*
X143523809Y-82630429D01*
X143561904Y-82706619D01*
X143561904Y-82782810D01*
X143523809Y-82859000D01*
X143485714Y-82897095D01*
X143409523Y-82935190D01*
X143257142Y-82973286D01*
X143066666Y-82973286D01*
X142914285Y-82935190D01*
X142838095Y-82897095D01*
X142800000Y-82859000D01*
X142761904Y-82782810D01*
X142838095Y-82211381D02*
X142800000Y-82173286D01*
X142761904Y-82097095D01*
X142761904Y-81906619D01*
X142800000Y-81830429D01*
X142838095Y-81792333D01*
X142914285Y-81754238D01*
X142990476Y-81754238D01*
X143104761Y-81792333D01*
X143561904Y-82249476D01*
X143561904Y-81754238D01*
X142761904Y-81259000D02*
X142761904Y-81182810D01*
X142800000Y-81106619D01*
X142838095Y-81068524D01*
X142914285Y-81030429D01*
X143066666Y-80992333D01*
X143257142Y-80992333D01*
X143409523Y-81030429D01*
X143485714Y-81068524D01*
X143523809Y-81106619D01*
X143561904Y-81182810D01*
X143561904Y-81259000D01*
X143523809Y-81335190D01*
X143485714Y-81373286D01*
X143409523Y-81411381D01*
X143257142Y-81449476D01*
X143066666Y-81449476D01*
X142914285Y-81411381D01*
X142838095Y-81373286D01*
X142800000Y-81335190D01*
X142761904Y-81259000D01*
X153061904Y-82782810D02*
X153061904Y-82706619D01*
X153100000Y-82630429D01*
X153138095Y-82592333D01*
X153214285Y-82554238D01*
X153366666Y-82516143D01*
X153557142Y-82516143D01*
X153709523Y-82554238D01*
X153785714Y-82592333D01*
X153823809Y-82630429D01*
X153861904Y-82706619D01*
X153861904Y-82782810D01*
X153823809Y-82859000D01*
X153785714Y-82897095D01*
X153709523Y-82935190D01*
X153557142Y-82973286D01*
X153366666Y-82973286D01*
X153214285Y-82935190D01*
X153138095Y-82897095D01*
X153100000Y-82859000D01*
X153061904Y-82782810D01*
X153061904Y-82020905D02*
X153061904Y-81944714D01*
X153100000Y-81868524D01*
X153138095Y-81830429D01*
X153214285Y-81792333D01*
X153366666Y-81754238D01*
X153557142Y-81754238D01*
X153709523Y-81792333D01*
X153785714Y-81830429D01*
X153823809Y-81868524D01*
X153861904Y-81944714D01*
X153861904Y-82020905D01*
X153823809Y-82097095D01*
X153785714Y-82135190D01*
X153709523Y-82173286D01*
X153557142Y-82211381D01*
X153366666Y-82211381D01*
X153214285Y-82173286D01*
X153138095Y-82135190D01*
X153100000Y-82097095D01*
X153061904Y-82020905D01*
X153404761Y-81297095D02*
X153366666Y-81373286D01*
X153328571Y-81411381D01*
X153252380Y-81449476D01*
X153214285Y-81449476D01*
X153138095Y-81411381D01*
X153100000Y-81373286D01*
X153061904Y-81297095D01*
X153061904Y-81144714D01*
X153100000Y-81068524D01*
X153138095Y-81030429D01*
X153214285Y-80992333D01*
X153252380Y-80992333D01*
X153328571Y-81030429D01*
X153366666Y-81068524D01*
X153404761Y-81144714D01*
X153404761Y-81297095D01*
X153442857Y-81373286D01*
X153480952Y-81411381D01*
X153557142Y-81449476D01*
X153709523Y-81449476D01*
X153785714Y-81411381D01*
X153823809Y-81373286D01*
X153861904Y-81297095D01*
X153861904Y-81144714D01*
X153823809Y-81068524D01*
X153785714Y-81030429D01*
X153709523Y-80992333D01*
X153557142Y-80992333D01*
X153480952Y-81030429D01*
X153442857Y-81068524D01*
X153404761Y-81144714D01*
X155531904Y-82782810D02*
X155531904Y-82706619D01*
X155570000Y-82630429D01*
X155608095Y-82592333D01*
X155684285Y-82554238D01*
X155836666Y-82516143D01*
X156027142Y-82516143D01*
X156179523Y-82554238D01*
X156255714Y-82592333D01*
X156293809Y-82630429D01*
X156331904Y-82706619D01*
X156331904Y-82782810D01*
X156293809Y-82859000D01*
X156255714Y-82897095D01*
X156179523Y-82935190D01*
X156027142Y-82973286D01*
X155836666Y-82973286D01*
X155684285Y-82935190D01*
X155608095Y-82897095D01*
X155570000Y-82859000D01*
X155531904Y-82782810D01*
X155531904Y-82020905D02*
X155531904Y-81944714D01*
X155570000Y-81868524D01*
X155608095Y-81830429D01*
X155684285Y-81792333D01*
X155836666Y-81754238D01*
X156027142Y-81754238D01*
X156179523Y-81792333D01*
X156255714Y-81830429D01*
X156293809Y-81868524D01*
X156331904Y-81944714D01*
X156331904Y-82020905D01*
X156293809Y-82097095D01*
X156255714Y-82135190D01*
X156179523Y-82173286D01*
X156027142Y-82211381D01*
X155836666Y-82211381D01*
X155684285Y-82173286D01*
X155608095Y-82135190D01*
X155570000Y-82097095D01*
X155531904Y-82020905D01*
X155531904Y-81068524D02*
X155531904Y-81220905D01*
X155570000Y-81297095D01*
X155608095Y-81335190D01*
X155722380Y-81411381D01*
X155874761Y-81449476D01*
X156179523Y-81449476D01*
X156255714Y-81411381D01*
X156293809Y-81373286D01*
X156331904Y-81297095D01*
X156331904Y-81144714D01*
X156293809Y-81068524D01*
X156255714Y-81030429D01*
X156179523Y-80992333D01*
X155989047Y-80992333D01*
X155912857Y-81030429D01*
X155874761Y-81068524D01*
X155836666Y-81144714D01*
X155836666Y-81297095D01*
X155874761Y-81373286D01*
X155912857Y-81411381D01*
X155989047Y-81449476D01*
%TD*%
M02*
