M48
; DRILL file {KiCad 5.1.8} date Thu Dec  3 05:05:11 2020
; FORMAT={-:-/ absolute / inch / decimal}
; #@! TF.CreationDate,2020-12-03T05:05:11-06:00
; #@! TF.GenerationSoftware,Kicad,Pcbnew,5.1.8
; #@! TF.FileFunction,NonPlated,1,2,NPTH
FMAT,2
INCH
T1C0.0118
T2C0.0310
T3C0.0394
T4C0.0787
T5C0.2323
T6C0.5591
%
G90
G05
T2
X6.0717Y-4.3601
X6.1217Y-4.3601
X6.1717Y-4.3601
X6.2217Y-4.3601
X6.2717Y-4.3601
X4.1635Y-2.6378
X4.1635Y-2.6878
X4.1635Y-2.7378
X4.1635Y-2.7878
X4.1635Y-2.8378
X4.1635Y-2.8858
X4.1635Y-2.9358
X4.1635Y-2.9858
X4.1635Y-3.0358
X4.1635Y-3.0858
X4.1635Y-3.1339
X4.1992Y-4.3601
X4.2492Y-4.3601
X4.2992Y-4.3601
X4.3492Y-4.3601
X4.3992Y-4.3601
T1
G00X2.878Y-1.6102
M15
G01X2.878Y-1.3819
M16
G05
G00X3.0236Y-1.6516
M15
G01X3.0236Y-1.6161
M16
G05
G00X2.878Y-1.3819
M15
G01X3.3425Y-1.3819
M16
G05
G00X2.878Y-1.6102
M15
G01X3.3425Y-1.6102
M16
G05
G00X3.0236Y-1.6516
M15
G01X3.1969Y-1.6516
M16
G05
G00X3.1969Y-1.6516
M15
G01X3.1969Y-1.6161
M16
G05
G00X3.3425Y-1.6102
M15
G01X3.3425Y-1.3819
M16
G05
G00X5.0039Y-2.8307
M15
G01X5.0039Y-2.6024
M16
G05
G00X5.1496Y-2.872
M15
G01X5.1496Y-2.8366
M16
G05
G00X5.0039Y-2.6024
M15
G01X5.4685Y-2.6024
M16
G05
G00X5.0039Y-2.8307
M15
G01X5.4685Y-2.8307
M16
G05
G00X5.1496Y-2.872
M15
G01X5.3228Y-2.872
M16
G05
G00X5.3228Y-2.872
M15
G01X5.3228Y-2.8366
M16
G05
G00X5.4685Y-2.8307
M15
G01X5.4685Y-2.6024
M16
G05
G00X3.5866Y-1.4921
M15
G01X3.5866Y-1.2638
M16
G05
G00X3.7323Y-1.5335
M15
G01X3.7323Y-1.498
M16
G05
G00X3.5866Y-1.2638
M15
G01X4.0512Y-1.2638
M16
G05
G00X3.5866Y-1.4921
M15
G01X4.0512Y-1.4921
M16
G05
G00X3.7323Y-1.5335
M15
G01X3.9055Y-1.5335
M16
G05
G00X3.9055Y-1.5335
M15
G01X3.9055Y-1.498
M16
G05
G00X4.0512Y-1.4921
M15
G01X4.0512Y-1.2638
M16
G05
G00X4.2953Y-2.6339
M15
G01X4.2953Y-2.4055
M16
G05
G00X4.4409Y-2.6752
M15
G01X4.4409Y-2.6398
M16
G05
G00X4.2953Y-2.4055
M15
G01X4.7598Y-2.4055
M16
G05
G00X4.2953Y-2.6339
M15
G01X4.7598Y-2.6339
M16
G05
G00X4.4409Y-2.6752
M15
G01X4.6142Y-2.6752
M16
G05
G00X4.6142Y-2.6752
M15
G01X4.6142Y-2.6398
M16
G05
G00X4.7598Y-2.6339
M15
G01X4.7598Y-2.4055
M16
G05
G00X5.0039Y-2.1614
M15
G01X5.0039Y-1.9331
M16
G05
G00X5.1496Y-2.2028
M15
G01X5.1496Y-2.1673
M16
G05
G00X5.0039Y-1.9331
M15
G01X5.4685Y-1.9331
M16
G05
G00X5.0039Y-2.1614
M15
G01X5.4685Y-2.1614
M16
G05
G00X5.1496Y-2.2028
M15
G01X5.3228Y-2.2028
M16
G05
G00X5.3228Y-2.2028
M15
G01X5.3228Y-2.1673
M16
G05
G00X5.4685Y-2.1614
M15
G01X5.4685Y-1.9331
M16
G05
G00X5.0039Y-1.4921
M15
G01X5.0039Y-1.2638
M16
G05
G00X5.1496Y-1.5335
M15
G01X5.1496Y-1.498
M16
G05
G00X5.0039Y-1.2638
M15
G01X5.4685Y-1.2638
M16
G05
G00X5.0039Y-1.4921
M15
G01X5.4685Y-1.4921
M16
G05
G00X5.1496Y-1.5335
M15
G01X5.3228Y-1.5335
M16
G05
G00X5.3228Y-1.5335
M15
G01X5.3228Y-1.498
M16
G05
G00X5.4685Y-1.4921
M15
G01X5.4685Y-1.2638
M16
G05
G00X5.7126Y-2.9488
M15
G01X5.7126Y-2.7205
M16
G05
G00X5.8583Y-2.9902
M15
G01X5.8583Y-2.9547
M16
G05
G00X5.7126Y-2.7205
M15
G01X6.1772Y-2.7205
M16
G05
G00X5.7126Y-2.9488
M15
G01X6.1772Y-2.9488
M16
G05
G00X5.8583Y-2.9902
M15
G01X6.0315Y-2.9902
M16
G05
G00X6.0315Y-2.9902
M15
G01X6.0315Y-2.9547
M16
G05
G00X6.1772Y-2.9488
M15
G01X6.1772Y-2.7205
M16
G05
G00X5.7126Y-2.2795
M15
G01X5.7126Y-2.0512
M16
G05
G00X5.8583Y-2.3209
M15
G01X5.8583Y-2.2854
M16
G05
G00X5.7126Y-2.0512
M15
G01X6.1772Y-2.0512
M16
G05
G00X5.7126Y-2.2795
M15
G01X6.1772Y-2.2795
M16
G05
G00X5.8583Y-2.3209
M15
G01X6.0315Y-2.3209
M16
G05
G00X6.0315Y-2.3209
M15
G01X6.0315Y-2.2854
M16
G05
G00X6.1772Y-2.2795
M15
G01X6.1772Y-2.0512
M16
G05
G00X3.5669Y-3.0039
M15
G01X3.5669Y-2.7756
M16
G05
G00X3.7126Y-3.0453
M15
G01X3.7126Y-3.0098
M16
G05
G00X3.5669Y-2.7756
M15
G01X4.0315Y-2.7756
M16
G05
G00X3.5669Y-3.0039
M15
G01X4.0315Y-3.0039
M16
G05
G00X3.7126Y-3.0453
M15
G01X3.8858Y-3.0453
M16
G05
G00X3.8858Y-3.0453
M15
G01X3.8858Y-3.0098
M16
G05
G00X4.0315Y-3.0039
M15
G01X4.0315Y-2.7756
M16
G05
G00X4.2953Y-1.9646
M15
G01X4.2953Y-1.7362
M16
G05
G00X4.4409Y-2.0059
M15
G01X4.4409Y-1.9705
M16
G05
G00X4.2953Y-1.7362
M15
G01X4.7598Y-1.7362
M16
G05
G00X4.2953Y-1.9646
M15
G01X4.7598Y-1.9646
M16
G05
G00X4.4409Y-2.0059
M15
G01X4.6142Y-2.0059
M16
G05
G00X4.6142Y-2.0059
M15
G01X4.6142Y-1.9705
M16
G05
G00X4.7598Y-1.9646
M15
G01X4.7598Y-1.7362
M16
G05
G00X3.5866Y-2.1614
M15
G01X3.5866Y-1.9331
M16
G05
G00X3.7323Y-2.2028
M15
G01X3.7323Y-2.1673
M16
G05
G00X3.5866Y-1.9331
M15
G01X4.0512Y-1.9331
M16
G05
G00X3.5866Y-2.1614
M15
G01X4.0512Y-2.1614
M16
G05
G00X3.7323Y-2.2028
M15
G01X3.9055Y-2.2028
M16
G05
G00X3.9055Y-2.2028
M15
G01X3.9055Y-2.1673
M16
G05
G00X4.0512Y-2.1614
M15
G01X4.0512Y-1.9331
M16
G05
G00X2.878Y-2.2795
M15
G01X2.878Y-2.0512
M16
G05
G00X3.0236Y-2.3209
M15
G01X3.0236Y-2.2854
M16
G05
G00X2.878Y-2.0512
M15
G01X3.3425Y-2.0512
M16
G05
G00X2.878Y-2.2795
M15
G01X3.3425Y-2.2795
M16
G05
G00X3.0236Y-2.3209
M15
G01X3.1969Y-2.3209
M16
G05
G00X3.1969Y-2.3209
M15
G01X3.1969Y-2.2854
M16
G05
G00X3.3425Y-2.2795
M15
G01X3.3425Y-2.0512
M16
G05
G00X4.2953Y-1.2953
M15
G01X4.2953Y-1.0669
M16
G05
G00X4.4409Y-1.3366
M15
G01X4.4409Y-1.3012
M16
G05
G00X4.2953Y-1.0669
M15
G01X4.7598Y-1.0669
M16
G05
G00X4.2953Y-1.2953
M15
G01X4.7598Y-1.2953
M16
G05
G00X4.4409Y-1.3366
M15
G01X4.6142Y-1.3366
M16
G05
G00X4.6142Y-1.3366
M15
G01X4.6142Y-1.3012
M16
G05
G00X4.7598Y-1.2953
M15
G01X4.7598Y-1.0669
M16
G05
G00X2.8583Y-2.9252
M15
G01X2.8583Y-2.6969
M16
G05
G00X3.0039Y-2.9665
M15
G01X3.0039Y-2.9311
M16
G05
G00X2.8583Y-2.6969
M15
G01X3.3228Y-2.6969
M16
G05
G00X2.8583Y-2.9252
M15
G01X3.3228Y-2.9252
M16
G05
G00X3.0039Y-2.9665
M15
G01X3.1772Y-2.9665
M16
G05
G00X3.1772Y-2.9665
M15
G01X3.1772Y-2.9311
M16
G05
G00X3.3228Y-2.9252
M15
G01X3.3228Y-2.6969
M16
G05
T3
G00X2.8992Y-1.3996
M15
G01X2.8992Y-1.5925
M16
G05
G00X2.9295Y-1.3996
M15
G01X2.9295Y-1.5925
M16
G05
G00X2.9449Y-1.3996
M15
G01X2.9449Y-1.5925
M16
G05
G00X3.0374Y-1.6339
M15
G01X3.1831Y-1.6339
M16
G05
G00X3.2756Y-1.3996
M15
G01X3.2756Y-1.5925
M16
G05
G00X3.2909Y-1.3996
M15
G01X3.2909Y-1.5925
M16
G05
G00X3.3213Y-1.3996
M15
G01X3.3213Y-1.5925
M16
G05
G00X5.0252Y-2.6201
M15
G01X5.0252Y-2.813
M16
G05
G00X5.0555Y-2.6201
M15
G01X5.0555Y-2.813
M16
G05
G00X5.0709Y-2.6201
M15
G01X5.0709Y-2.813
M16
G05
G00X5.1634Y-2.8543
M15
G01X5.3091Y-2.8543
M16
G05
G00X5.4016Y-2.6201
M15
G01X5.4016Y-2.813
M16
G05
G00X5.4169Y-2.6201
M15
G01X5.4169Y-2.813
M16
G05
G00X5.4472Y-2.6201
M15
G01X5.4472Y-2.813
M16
G05
G00X3.6079Y-1.2815
M15
G01X3.6079Y-1.4744
M16
G05
G00X3.6382Y-1.2815
M15
G01X3.6382Y-1.4744
M16
G05
G00X3.6535Y-1.2815
M15
G01X3.6535Y-1.4744
M16
G05
G00X3.7461Y-1.5157
M15
G01X3.8917Y-1.5157
M16
G05
G00X3.9843Y-1.2815
M15
G01X3.9843Y-1.4744
M16
G05
G00X3.9996Y-1.2815
M15
G01X3.9996Y-1.4744
M16
G05
G00X4.0299Y-1.2815
M15
G01X4.0299Y-1.4744
M16
G05
G00X4.3165Y-2.4232
M15
G01X4.3165Y-2.6161
M16
G05
G00X4.3469Y-2.4232
M15
G01X4.3469Y-2.6161
M16
G05
G00X4.3622Y-2.4232
M15
G01X4.3622Y-2.6161
M16
G05
G00X4.4547Y-2.6575
M15
G01X4.6004Y-2.6575
M16
G05
G00X4.6929Y-2.4232
M15
G01X4.6929Y-2.6161
M16
G05
G00X4.7083Y-2.4232
M15
G01X4.7083Y-2.6161
M16
G05
G00X4.7386Y-2.4232
M15
G01X4.7386Y-2.6161
M16
G05
G00X5.0252Y-1.9508
M15
G01X5.0252Y-2.1437
M16
G05
G00X5.0555Y-1.9508
M15
G01X5.0555Y-2.1437
M16
G05
G00X5.0709Y-1.9508
M15
G01X5.0709Y-2.1437
M16
G05
G00X5.1634Y-2.185
M15
G01X5.3091Y-2.185
M16
G05
G00X5.4016Y-1.9508
M15
G01X5.4016Y-2.1437
M16
G05
G00X5.4169Y-1.9508
M15
G01X5.4169Y-2.1437
M16
G05
G00X5.4472Y-1.9508
M15
G01X5.4472Y-2.1437
M16
G05
G00X5.0252Y-1.2815
M15
G01X5.0252Y-1.4744
M16
G05
G00X5.0555Y-1.2815
M15
G01X5.0555Y-1.4744
M16
G05
G00X5.0709Y-1.2815
M15
G01X5.0709Y-1.4744
M16
G05
G00X5.1634Y-1.5157
M15
G01X5.3091Y-1.5157
M16
G05
G00X5.4016Y-1.2815
M15
G01X5.4016Y-1.4744
M16
G05
G00X5.4169Y-1.2815
M15
G01X5.4169Y-1.4744
M16
G05
G00X5.4472Y-1.2815
M15
G01X5.4472Y-1.4744
M16
G05
G00X5.7339Y-2.7382
M15
G01X5.7339Y-2.9311
M16
G05
G00X5.7642Y-2.7382
M15
G01X5.7642Y-2.9311
M16
G05
G00X5.7795Y-2.7382
M15
G01X5.7795Y-2.9311
M16
G05
G00X5.872Y-2.9724
M15
G01X6.0177Y-2.9724
M16
G05
G00X6.1102Y-2.7382
M15
G01X6.1102Y-2.9311
M16
G05
G00X6.1256Y-2.7382
M15
G01X6.1256Y-2.9311
M16
G05
G00X6.1559Y-2.7382
M15
G01X6.1559Y-2.9311
M16
G05
G00X5.7339Y-2.0689
M15
G01X5.7339Y-2.2618
M16
G05
G00X5.7642Y-2.0689
M15
G01X5.7642Y-2.2618
M16
G05
G00X5.7795Y-2.0689
M15
G01X5.7795Y-2.2618
M16
G05
G00X5.872Y-2.3031
M15
G01X6.0177Y-2.3031
M16
G05
G00X6.1102Y-2.0689
M15
G01X6.1102Y-2.2618
M16
G05
G00X6.1256Y-2.0689
M15
G01X6.1256Y-2.2618
M16
G05
G00X6.1559Y-2.0689
M15
G01X6.1559Y-2.2618
M16
G05
G00X3.5882Y-2.7933
M15
G01X3.5882Y-2.9862
M16
G05
G00X3.6185Y-2.7933
M15
G01X3.6185Y-2.9862
M16
G05
G00X3.6339Y-2.7933
M15
G01X3.6339Y-2.9862
M16
G05
G00X3.7264Y-3.0276
M15
G01X3.872Y-3.0276
M16
G05
G00X3.9646Y-2.7933
M15
G01X3.9646Y-2.9862
M16
G05
G00X3.9799Y-2.7933
M15
G01X3.9799Y-2.9862
M16
G05
G00X4.0102Y-2.7933
M15
G01X4.0102Y-2.9862
M16
G05
G00X4.3165Y-1.7539
M15
G01X4.3165Y-1.9469
M16
G05
G00X4.3469Y-1.7539
M15
G01X4.3469Y-1.9469
M16
G05
G00X4.3622Y-1.7539
M15
G01X4.3622Y-1.9469
M16
G05
G00X4.4547Y-1.9882
M15
G01X4.6004Y-1.9882
M16
G05
G00X4.6929Y-1.7539
M15
G01X4.6929Y-1.9469
M16
G05
G00X4.7083Y-1.7539
M15
G01X4.7083Y-1.9469
M16
G05
G00X4.7386Y-1.7539
M15
G01X4.7386Y-1.9469
M16
G05
G00X3.6079Y-1.9508
M15
G01X3.6079Y-2.1437
M16
G05
G00X3.6382Y-1.9508
M15
G01X3.6382Y-2.1437
M16
G05
G00X3.6535Y-1.9508
M15
G01X3.6535Y-2.1437
M16
G05
G00X3.7461Y-2.185
M15
G01X3.8917Y-2.185
M16
G05
G00X3.9843Y-1.9508
M15
G01X3.9843Y-2.1437
M16
G05
G00X3.9996Y-1.9508
M15
G01X3.9996Y-2.1437
M16
G05
G00X4.0299Y-1.9508
M15
G01X4.0299Y-2.1437
M16
G05
G00X2.8992Y-2.0689
M15
G01X2.8992Y-2.2618
M16
G05
G00X2.9295Y-2.0689
M15
G01X2.9295Y-2.2618
M16
G05
G00X2.9449Y-2.0689
M15
G01X2.9449Y-2.2618
M16
G05
G00X3.0374Y-2.3031
M15
G01X3.1831Y-2.3031
M16
G05
G00X3.2756Y-2.0689
M15
G01X3.2756Y-2.2618
M16
G05
G00X3.2909Y-2.0689
M15
G01X3.2909Y-2.2618
M16
G05
G00X3.3213Y-2.0689
M15
G01X3.3213Y-2.2618
M16
G05
G00X4.3165Y-1.0846
M15
G01X4.3165Y-1.2776
M16
G05
G00X4.3469Y-1.0846
M15
G01X4.3469Y-1.2776
M16
G05
G00X4.3622Y-1.0846
M15
G01X4.3622Y-1.2776
M16
G05
G00X4.4547Y-1.3189
M15
G01X4.6004Y-1.3189
M16
G05
G00X4.6929Y-1.0846
M15
G01X4.6929Y-1.2776
M16
G05
G00X4.7083Y-1.0846
M15
G01X4.7083Y-1.2776
M16
G05
G00X4.7386Y-1.0846
M15
G01X4.7386Y-1.2776
M16
G05
G00X2.8795Y-2.7146
M15
G01X2.8795Y-2.9075
M16
G05
G00X2.9098Y-2.7146
M15
G01X2.9098Y-2.9075
M16
G05
G00X2.9252Y-2.7146
M15
G01X2.9252Y-2.9075
M16
G05
G00X3.0177Y-2.9488
M15
G01X3.1634Y-2.9488
M16
G05
G00X3.2559Y-2.7146
M15
G01X3.2559Y-2.9075
M16
G05
G00X3.2713Y-2.7146
M15
G01X3.2713Y-2.9075
M16
G05
G00X3.3016Y-2.7146
M15
G01X3.3016Y-2.9075
M16
G05
T4
G00X2.9843Y-3.3248
M15
G01X2.9843Y-3.128
M16
G05
G00X2.9843Y-3.6201
M15
G01X2.9843Y-3.4232
M16
G05
G00X3.4646Y-3.128
M15
G01X2.9843Y-3.128
M16
G05
G00X3.4646Y-3.6201
M15
G01X2.9843Y-3.6201
M16
G05
G00X3.4646Y-3.3268
M15
G01X3.4646Y-3.1299
M16
G05
G00X3.4646Y-3.6201
M15
G01X3.4646Y-3.4232
M16
G05
T5
G00X2.9931Y-1.4961
M15
G01X3.2274Y-1.4961
M16
G05
G00X5.1191Y-2.7165
M15
G01X5.3533Y-2.7165
M16
G05
G00X4.4104Y-2.5197
M15
G01X4.6447Y-2.5197
M16
G05
G00X5.1191Y-2.0472
M15
G01X5.3533Y-2.0472
M16
G05
G00X3.6821Y-2.8898
M15
G01X3.9163Y-2.8898
M16
G05
G00X2.9931Y-2.1654
M15
G01X3.2274Y-2.1654
M16
G05
G00X3.7018Y-1.378
M15
G01X3.936Y-1.378
M16
G05
G00X5.1191Y-1.378
M15
G01X5.3533Y-1.378
M16
G05
G00X5.8278Y-2.8346
M15
G01X6.062Y-2.8346
M16
G05
G00X5.8278Y-2.1654
M15
G01X6.062Y-2.1654
M16
G05
G00X4.4104Y-1.8504
M15
G01X4.6447Y-1.8504
M16
G05
G00X3.7018Y-2.0472
M15
G01X3.936Y-2.0472
M16
G05
G00X4.4104Y-1.1811
M15
G01X4.6447Y-1.1811
M16
G05
G00X2.9734Y-2.811
M15
G01X3.2077Y-2.811
M16
G05
T6
G00X3.2244Y-3.3681
M15
G01X3.2244Y-3.3799
M16
G05
T0
M30
