%TF.GenerationSoftware,KiCad,Pcbnew,5.1.8*%
%TF.CreationDate,2020-12-03T05:05:08-06:00*%
%TF.ProjectId,fistion,66697374-696f-46e2-9e6b-696361645f70,rev?*%
%TF.SameCoordinates,Original*%
%TF.FileFunction,Legend,Bot*%
%TF.FilePolarity,Positive*%
%FSLAX46Y46*%
G04 Gerber Fmt 4.6, Leading zero omitted, Abs format (unit mm)*
G04 Created by KiCad (PCBNEW 5.1.8) date 2020-12-03 05:05:08*
%MOMM*%
%LPD*%
G01*
G04 APERTURE LIST*
%ADD10C,0.120000*%
%ADD11C,0.381000*%
%ADD12C,0.150000*%
G04 APERTURE END LIST*
D10*
%TO.C,PUSH1*%
X154250000Y-90500000D02*
X154250000Y-90300000D01*
X154250000Y-84300000D02*
X154250000Y-84500000D01*
X147550000Y-84300000D02*
X147550000Y-84500000D01*
X147550000Y-90500000D02*
X147550000Y-90300000D01*
X147550000Y-88600000D02*
X147550000Y-86200000D01*
X154250000Y-88600000D02*
X154250000Y-86200000D01*
X154250000Y-90500000D02*
X147550000Y-90500000D01*
X147550000Y-84300000D02*
X154250000Y-84300000D01*
%TO.C,R1*%
X150227064Y-91665000D02*
X149772936Y-91665000D01*
X150227064Y-93135000D02*
X149772936Y-93135000D01*
D11*
%TO.C,U1*%
X126760000Y-96410000D02*
X159780000Y-96410000D01*
X126760000Y-78630000D02*
X126760000Y-96410000D01*
X159780000Y-78630000D02*
X126760000Y-78630000D01*
X159780000Y-96410000D02*
X159780000Y-78630000D01*
D10*
%TO.C,R3*%
X120235000Y-91227064D02*
X120235000Y-90772936D01*
X118765000Y-91227064D02*
X118765000Y-90772936D01*
%TO.C,U2*%
X126325000Y-88400000D02*
X126325000Y-91150000D01*
X126325000Y-91150000D02*
X126065000Y-91150000D01*
X126325000Y-88400000D02*
X126325000Y-85650000D01*
X126325000Y-85650000D02*
X126065000Y-85650000D01*
X120875000Y-88400000D02*
X120875000Y-91150000D01*
X120875000Y-91150000D02*
X121135000Y-91150000D01*
X120875000Y-88400000D02*
X120875000Y-85650000D01*
X120875000Y-85650000D02*
X121135000Y-85650000D01*
X121135000Y-85650000D02*
X121135000Y-84000000D01*
%TO.C,U1*%
D12*
X153061904Y-81182810D02*
X153061904Y-81259000D01*
X153100000Y-81335190D01*
X153138095Y-81373286D01*
X153214285Y-81411381D01*
X153366666Y-81449476D01*
X153557142Y-81449476D01*
X153709523Y-81411381D01*
X153785714Y-81373286D01*
X153823809Y-81335190D01*
X153861904Y-81259000D01*
X153861904Y-81182810D01*
X153823809Y-81106619D01*
X153785714Y-81068524D01*
X153709523Y-81030429D01*
X153557142Y-80992333D01*
X153366666Y-80992333D01*
X153214285Y-81030429D01*
X153138095Y-81068524D01*
X153100000Y-81106619D01*
X153061904Y-81182810D01*
X153061904Y-81944714D02*
X153061904Y-82020905D01*
X153100000Y-82097095D01*
X153138095Y-82135190D01*
X153214285Y-82173286D01*
X153366666Y-82211381D01*
X153557142Y-82211381D01*
X153709523Y-82173286D01*
X153785714Y-82135190D01*
X153823809Y-82097095D01*
X153861904Y-82020905D01*
X153861904Y-81944714D01*
X153823809Y-81868524D01*
X153785714Y-81830429D01*
X153709523Y-81792333D01*
X153557142Y-81754238D01*
X153366666Y-81754238D01*
X153214285Y-81792333D01*
X153138095Y-81830429D01*
X153100000Y-81868524D01*
X153061904Y-81944714D01*
X153404761Y-82668524D02*
X153366666Y-82592333D01*
X153328571Y-82554238D01*
X153252380Y-82516143D01*
X153214285Y-82516143D01*
X153138095Y-82554238D01*
X153100000Y-82592333D01*
X153061904Y-82668524D01*
X153061904Y-82820905D01*
X153100000Y-82897095D01*
X153138095Y-82935190D01*
X153214285Y-82973286D01*
X153252380Y-82973286D01*
X153328571Y-82935190D01*
X153366666Y-82897095D01*
X153404761Y-82820905D01*
X153404761Y-82668524D01*
X153442857Y-82592333D01*
X153480952Y-82554238D01*
X153557142Y-82516143D01*
X153709523Y-82516143D01*
X153785714Y-82554238D01*
X153823809Y-82592333D01*
X153861904Y-82668524D01*
X153861904Y-82820905D01*
X153823809Y-82897095D01*
X153785714Y-82935190D01*
X153709523Y-82973286D01*
X153557142Y-82973286D01*
X153480952Y-82935190D01*
X153442857Y-82897095D01*
X153404761Y-82820905D01*
X142761904Y-81182810D02*
X142761904Y-81259000D01*
X142800000Y-81335190D01*
X142838095Y-81373286D01*
X142914285Y-81411381D01*
X143066666Y-81449476D01*
X143257142Y-81449476D01*
X143409523Y-81411381D01*
X143485714Y-81373286D01*
X143523809Y-81335190D01*
X143561904Y-81259000D01*
X143561904Y-81182810D01*
X143523809Y-81106619D01*
X143485714Y-81068524D01*
X143409523Y-81030429D01*
X143257142Y-80992333D01*
X143066666Y-80992333D01*
X142914285Y-81030429D01*
X142838095Y-81068524D01*
X142800000Y-81106619D01*
X142761904Y-81182810D01*
X142838095Y-81754238D02*
X142800000Y-81792333D01*
X142761904Y-81868524D01*
X142761904Y-82059000D01*
X142800000Y-82135190D01*
X142838095Y-82173286D01*
X142914285Y-82211381D01*
X142990476Y-82211381D01*
X143104761Y-82173286D01*
X143561904Y-81716143D01*
X143561904Y-82211381D01*
X142761904Y-82706619D02*
X142761904Y-82782810D01*
X142800000Y-82859000D01*
X142838095Y-82897095D01*
X142914285Y-82935190D01*
X143066666Y-82973286D01*
X143257142Y-82973286D01*
X143409523Y-82935190D01*
X143485714Y-82897095D01*
X143523809Y-82859000D01*
X143561904Y-82782810D01*
X143561904Y-82706619D01*
X143523809Y-82630429D01*
X143485714Y-82592333D01*
X143409523Y-82554238D01*
X143257142Y-82516143D01*
X143066666Y-82516143D01*
X142914285Y-82554238D01*
X142838095Y-82592333D01*
X142800000Y-82630429D01*
X142761904Y-82706619D01*
X145371904Y-81182810D02*
X145371904Y-81259000D01*
X145410000Y-81335190D01*
X145448095Y-81373286D01*
X145524285Y-81411381D01*
X145676666Y-81449476D01*
X145867142Y-81449476D01*
X146019523Y-81411381D01*
X146095714Y-81373286D01*
X146133809Y-81335190D01*
X146171904Y-81259000D01*
X146171904Y-81182810D01*
X146133809Y-81106619D01*
X146095714Y-81068524D01*
X146019523Y-81030429D01*
X145867142Y-80992333D01*
X145676666Y-80992333D01*
X145524285Y-81030429D01*
X145448095Y-81068524D01*
X145410000Y-81106619D01*
X145371904Y-81182810D01*
X146171904Y-82211381D02*
X146171904Y-81754238D01*
X146171904Y-81982810D02*
X145371904Y-81982810D01*
X145486190Y-81906619D01*
X145562380Y-81830429D01*
X145600476Y-81754238D01*
X145371904Y-82478048D02*
X145371904Y-83011381D01*
X146171904Y-82668524D01*
X147950000Y-81449476D02*
X147911904Y-81373285D01*
X147911904Y-81259000D01*
X147950000Y-81144714D01*
X148026190Y-81068523D01*
X148102380Y-81030428D01*
X148254761Y-80992333D01*
X148369047Y-80992333D01*
X148521428Y-81030428D01*
X148597619Y-81068523D01*
X148673809Y-81144714D01*
X148711904Y-81259000D01*
X148711904Y-81335190D01*
X148673809Y-81449476D01*
X148635714Y-81487571D01*
X148369047Y-81487571D01*
X148369047Y-81335190D01*
X148711904Y-81830428D02*
X147911904Y-81830428D01*
X148711904Y-82287571D01*
X147911904Y-82287571D01*
X148711904Y-82668523D02*
X147911904Y-82668523D01*
X147911904Y-82859000D01*
X147950000Y-82973285D01*
X148026190Y-83049476D01*
X148102380Y-83087571D01*
X148254761Y-83125666D01*
X148369047Y-83125666D01*
X148521428Y-83087571D01*
X148597619Y-83049476D01*
X148673809Y-82973285D01*
X148711904Y-82859000D01*
X148711904Y-82668523D01*
X150490000Y-81449476D02*
X150451904Y-81373285D01*
X150451904Y-81259000D01*
X150490000Y-81144714D01*
X150566190Y-81068523D01*
X150642380Y-81030428D01*
X150794761Y-80992333D01*
X150909047Y-80992333D01*
X151061428Y-81030428D01*
X151137619Y-81068523D01*
X151213809Y-81144714D01*
X151251904Y-81259000D01*
X151251904Y-81335190D01*
X151213809Y-81449476D01*
X151175714Y-81487571D01*
X150909047Y-81487571D01*
X150909047Y-81335190D01*
X151251904Y-81830428D02*
X150451904Y-81830428D01*
X151251904Y-82287571D01*
X150451904Y-82287571D01*
X151251904Y-82668523D02*
X150451904Y-82668523D01*
X150451904Y-82859000D01*
X150490000Y-82973285D01*
X150566190Y-83049476D01*
X150642380Y-83087571D01*
X150794761Y-83125666D01*
X150909047Y-83125666D01*
X151061428Y-83087571D01*
X151137619Y-83049476D01*
X151213809Y-82973285D01*
X151251904Y-82859000D01*
X151251904Y-82668523D01*
X140261904Y-81182810D02*
X140261904Y-81259000D01*
X140300000Y-81335190D01*
X140338095Y-81373286D01*
X140414285Y-81411381D01*
X140566666Y-81449476D01*
X140757142Y-81449476D01*
X140909523Y-81411381D01*
X140985714Y-81373286D01*
X141023809Y-81335190D01*
X141061904Y-81259000D01*
X141061904Y-81182810D01*
X141023809Y-81106619D01*
X140985714Y-81068524D01*
X140909523Y-81030429D01*
X140757142Y-80992333D01*
X140566666Y-80992333D01*
X140414285Y-81030429D01*
X140338095Y-81068524D01*
X140300000Y-81106619D01*
X140261904Y-81182810D01*
X140338095Y-81754238D02*
X140300000Y-81792333D01*
X140261904Y-81868524D01*
X140261904Y-82059000D01*
X140300000Y-82135190D01*
X140338095Y-82173286D01*
X140414285Y-82211381D01*
X140490476Y-82211381D01*
X140604761Y-82173286D01*
X141061904Y-81716143D01*
X141061904Y-82211381D01*
X140338095Y-82516143D02*
X140300000Y-82554238D01*
X140261904Y-82630429D01*
X140261904Y-82820905D01*
X140300000Y-82897095D01*
X140338095Y-82935190D01*
X140414285Y-82973286D01*
X140490476Y-82973286D01*
X140604761Y-82935190D01*
X141061904Y-82478048D01*
X141061904Y-82973286D01*
X137761904Y-81182810D02*
X137761904Y-81259000D01*
X137800000Y-81335190D01*
X137838095Y-81373286D01*
X137914285Y-81411381D01*
X138066666Y-81449476D01*
X138257142Y-81449476D01*
X138409523Y-81411381D01*
X138485714Y-81373286D01*
X138523809Y-81335190D01*
X138561904Y-81259000D01*
X138561904Y-81182810D01*
X138523809Y-81106619D01*
X138485714Y-81068524D01*
X138409523Y-81030429D01*
X138257142Y-80992333D01*
X138066666Y-80992333D01*
X137914285Y-81030429D01*
X137838095Y-81068524D01*
X137800000Y-81106619D01*
X137761904Y-81182810D01*
X137838095Y-81754238D02*
X137800000Y-81792333D01*
X137761904Y-81868524D01*
X137761904Y-82059000D01*
X137800000Y-82135190D01*
X137838095Y-82173286D01*
X137914285Y-82211381D01*
X137990476Y-82211381D01*
X138104761Y-82173286D01*
X138561904Y-81716143D01*
X138561904Y-82211381D01*
X138028571Y-82897095D02*
X138561904Y-82897095D01*
X137723809Y-82706619D02*
X138295238Y-82516143D01*
X138295238Y-83011381D01*
X136011904Y-81449476D02*
X136011904Y-80992333D01*
X136011904Y-81220905D02*
X135211904Y-81220905D01*
X135326190Y-81144714D01*
X135402380Y-81068524D01*
X135440476Y-80992333D01*
X135211904Y-81944714D02*
X135211904Y-82020905D01*
X135250000Y-82097095D01*
X135288095Y-82135190D01*
X135364285Y-82173286D01*
X135516666Y-82211381D01*
X135707142Y-82211381D01*
X135859523Y-82173286D01*
X135935714Y-82135190D01*
X135973809Y-82097095D01*
X136011904Y-82020905D01*
X136011904Y-81944714D01*
X135973809Y-81868524D01*
X135935714Y-81830429D01*
X135859523Y-81792333D01*
X135707142Y-81754238D01*
X135516666Y-81754238D01*
X135364285Y-81792333D01*
X135288095Y-81830429D01*
X135250000Y-81868524D01*
X135211904Y-81944714D01*
X135211904Y-82706619D02*
X135211904Y-82782810D01*
X135250000Y-82859000D01*
X135288095Y-82897095D01*
X135364285Y-82935190D01*
X135516666Y-82973286D01*
X135707142Y-82973286D01*
X135859523Y-82935190D01*
X135935714Y-82897095D01*
X135973809Y-82859000D01*
X136011904Y-82782810D01*
X136011904Y-82706619D01*
X135973809Y-82630429D01*
X135935714Y-82592333D01*
X135859523Y-82554238D01*
X135707142Y-82516143D01*
X135516666Y-82516143D01*
X135364285Y-82554238D01*
X135288095Y-82592333D01*
X135250000Y-82630429D01*
X135211904Y-82706619D01*
X130931904Y-81449476D02*
X130931904Y-80992333D01*
X130931904Y-81220905D02*
X130131904Y-81220905D01*
X130246190Y-81144714D01*
X130322380Y-81068524D01*
X130360476Y-80992333D01*
X130131904Y-81944714D02*
X130131904Y-82020905D01*
X130170000Y-82097095D01*
X130208095Y-82135190D01*
X130284285Y-82173286D01*
X130436666Y-82211381D01*
X130627142Y-82211381D01*
X130779523Y-82173286D01*
X130855714Y-82135190D01*
X130893809Y-82097095D01*
X130931904Y-82020905D01*
X130931904Y-81944714D01*
X130893809Y-81868524D01*
X130855714Y-81830429D01*
X130779523Y-81792333D01*
X130627142Y-81754238D01*
X130436666Y-81754238D01*
X130284285Y-81792333D01*
X130208095Y-81830429D01*
X130170000Y-81868524D01*
X130131904Y-81944714D01*
X130398571Y-82897095D02*
X130931904Y-82897095D01*
X130093809Y-82706619D02*
X130665238Y-82516143D01*
X130665238Y-83011381D01*
X133471904Y-92523857D02*
X133471904Y-92066714D01*
X133471904Y-92295286D02*
X132671904Y-92295286D01*
X132786190Y-92219095D01*
X132862380Y-92142905D01*
X132900476Y-92066714D01*
X133471904Y-93285762D02*
X133471904Y-92828619D01*
X133471904Y-93057191D02*
X132671904Y-93057191D01*
X132786190Y-92981000D01*
X132862380Y-92904810D01*
X132900476Y-92828619D01*
X133471904Y-94047667D02*
X133471904Y-93590524D01*
X133471904Y-93819095D02*
X132671904Y-93819095D01*
X132786190Y-93742905D01*
X132862380Y-93666714D01*
X132900476Y-93590524D01*
X136011904Y-92523857D02*
X136011904Y-92066714D01*
X136011904Y-92295286D02*
X135211904Y-92295286D01*
X135326190Y-92219095D01*
X135402380Y-92142905D01*
X135440476Y-92066714D01*
X136011904Y-93285762D02*
X136011904Y-92828619D01*
X136011904Y-93057191D02*
X135211904Y-93057191D01*
X135326190Y-92981000D01*
X135402380Y-92904810D01*
X135440476Y-92828619D01*
X135211904Y-93552429D02*
X135211904Y-94047667D01*
X135516666Y-93781000D01*
X135516666Y-93895286D01*
X135554761Y-93971476D01*
X135592857Y-94009571D01*
X135669047Y-94047667D01*
X135859523Y-94047667D01*
X135935714Y-94009571D01*
X135973809Y-93971476D01*
X136011904Y-93895286D01*
X136011904Y-93666714D01*
X135973809Y-93590524D01*
X135935714Y-93552429D01*
X145371904Y-92257191D02*
X145371904Y-92333381D01*
X145410000Y-92409571D01*
X145448095Y-92447667D01*
X145524285Y-92485762D01*
X145676666Y-92523857D01*
X145867142Y-92523857D01*
X146019523Y-92485762D01*
X146095714Y-92447667D01*
X146133809Y-92409571D01*
X146171904Y-92333381D01*
X146171904Y-92257191D01*
X146133809Y-92181000D01*
X146095714Y-92142905D01*
X146019523Y-92104810D01*
X145867142Y-92066714D01*
X145676666Y-92066714D01*
X145524285Y-92104810D01*
X145448095Y-92142905D01*
X145410000Y-92181000D01*
X145371904Y-92257191D01*
X145371904Y-92790524D02*
X145371904Y-93285762D01*
X145676666Y-93019095D01*
X145676666Y-93133381D01*
X145714761Y-93209571D01*
X145752857Y-93247667D01*
X145829047Y-93285762D01*
X146019523Y-93285762D01*
X146095714Y-93247667D01*
X146133809Y-93209571D01*
X146171904Y-93133381D01*
X146171904Y-92904810D01*
X146133809Y-92828619D01*
X146095714Y-92790524D01*
X146171904Y-94047667D02*
X146171904Y-93590524D01*
X146171904Y-93819095D02*
X145371904Y-93819095D01*
X145486190Y-93742905D01*
X145562380Y-93666714D01*
X145600476Y-93590524D01*
X147911904Y-91990524D02*
X148711904Y-92257191D01*
X147911904Y-92523857D01*
X148635714Y-93247667D02*
X148673809Y-93209571D01*
X148711904Y-93095286D01*
X148711904Y-93019095D01*
X148673809Y-92904810D01*
X148597619Y-92828619D01*
X148521428Y-92790524D01*
X148369047Y-92752429D01*
X148254761Y-92752429D01*
X148102380Y-92790524D01*
X148026190Y-92828619D01*
X147950000Y-92904810D01*
X147911904Y-93019095D01*
X147911904Y-93095286D01*
X147950000Y-93209571D01*
X147988095Y-93247667D01*
X148635714Y-94047667D02*
X148673809Y-94009571D01*
X148711904Y-93895286D01*
X148711904Y-93819095D01*
X148673809Y-93704810D01*
X148597619Y-93628619D01*
X148521428Y-93590524D01*
X148369047Y-93552429D01*
X148254761Y-93552429D01*
X148102380Y-93590524D01*
X148026190Y-93628619D01*
X147950000Y-93704810D01*
X147911904Y-93819095D01*
X147911904Y-93895286D01*
X147950000Y-94009571D01*
X147988095Y-94047667D01*
X153030000Y-92365143D02*
X152991904Y-92288952D01*
X152991904Y-92174667D01*
X153030000Y-92060381D01*
X153106190Y-91984190D01*
X153182380Y-91946095D01*
X153334761Y-91908000D01*
X153449047Y-91908000D01*
X153601428Y-91946095D01*
X153677619Y-91984190D01*
X153753809Y-92060381D01*
X153791904Y-92174667D01*
X153791904Y-92250857D01*
X153753809Y-92365143D01*
X153715714Y-92403238D01*
X153449047Y-92403238D01*
X153449047Y-92250857D01*
X153791904Y-92746095D02*
X152991904Y-92746095D01*
X153791904Y-93203238D01*
X152991904Y-93203238D01*
X153791904Y-93584190D02*
X152991904Y-93584190D01*
X152991904Y-93774667D01*
X153030000Y-93888952D01*
X153106190Y-93965143D01*
X153182380Y-94003238D01*
X153334761Y-94041333D01*
X153449047Y-94041333D01*
X153601428Y-94003238D01*
X153677619Y-93965143D01*
X153753809Y-93888952D01*
X153791904Y-93774667D01*
X153791904Y-93584190D01*
X156331904Y-92441334D02*
X155950952Y-92174667D01*
X156331904Y-91984191D02*
X155531904Y-91984191D01*
X155531904Y-92288953D01*
X155570000Y-92365143D01*
X155608095Y-92403238D01*
X155684285Y-92441334D01*
X155798571Y-92441334D01*
X155874761Y-92403238D01*
X155912857Y-92365143D01*
X155950952Y-92288953D01*
X155950952Y-91984191D01*
X156103333Y-92746095D02*
X156103333Y-93127048D01*
X156331904Y-92669905D02*
X155531904Y-92936572D01*
X156331904Y-93203238D01*
X155531904Y-93393715D02*
X156331904Y-93584191D01*
X155760476Y-93736572D01*
X156331904Y-93888953D01*
X155531904Y-94079429D01*
X142831904Y-92257191D02*
X142831904Y-92333381D01*
X142870000Y-92409571D01*
X142908095Y-92447667D01*
X142984285Y-92485762D01*
X143136666Y-92523857D01*
X143327142Y-92523857D01*
X143479523Y-92485762D01*
X143555714Y-92447667D01*
X143593809Y-92409571D01*
X143631904Y-92333381D01*
X143631904Y-92257191D01*
X143593809Y-92181000D01*
X143555714Y-92142905D01*
X143479523Y-92104810D01*
X143327142Y-92066714D01*
X143136666Y-92066714D01*
X142984285Y-92104810D01*
X142908095Y-92142905D01*
X142870000Y-92181000D01*
X142831904Y-92257191D01*
X142908095Y-92828619D02*
X142870000Y-92866714D01*
X142831904Y-92942905D01*
X142831904Y-93133381D01*
X142870000Y-93209571D01*
X142908095Y-93247667D01*
X142984285Y-93285762D01*
X143060476Y-93285762D01*
X143174761Y-93247667D01*
X143631904Y-92790524D01*
X143631904Y-93285762D01*
X143631904Y-93666714D02*
X143631904Y-93819095D01*
X143593809Y-93895286D01*
X143555714Y-93933381D01*
X143441428Y-94009571D01*
X143289047Y-94047667D01*
X142984285Y-94047667D01*
X142908095Y-94009571D01*
X142870000Y-93971476D01*
X142831904Y-93895286D01*
X142831904Y-93742905D01*
X142870000Y-93666714D01*
X142908095Y-93628619D01*
X142984285Y-93590524D01*
X143174761Y-93590524D01*
X143250952Y-93628619D01*
X143289047Y-93666714D01*
X143327142Y-93742905D01*
X143327142Y-93895286D01*
X143289047Y-93971476D01*
X143250952Y-94009571D01*
X143174761Y-94047667D01*
X140291904Y-92257191D02*
X140291904Y-92333381D01*
X140330000Y-92409571D01*
X140368095Y-92447667D01*
X140444285Y-92485762D01*
X140596666Y-92523857D01*
X140787142Y-92523857D01*
X140939523Y-92485762D01*
X141015714Y-92447667D01*
X141053809Y-92409571D01*
X141091904Y-92333381D01*
X141091904Y-92257191D01*
X141053809Y-92181000D01*
X141015714Y-92142905D01*
X140939523Y-92104810D01*
X140787142Y-92066714D01*
X140596666Y-92066714D01*
X140444285Y-92104810D01*
X140368095Y-92142905D01*
X140330000Y-92181000D01*
X140291904Y-92257191D01*
X140291904Y-93019095D02*
X140291904Y-93095286D01*
X140330000Y-93171476D01*
X140368095Y-93209571D01*
X140444285Y-93247667D01*
X140596666Y-93285762D01*
X140787142Y-93285762D01*
X140939523Y-93247667D01*
X141015714Y-93209571D01*
X141053809Y-93171476D01*
X141091904Y-93095286D01*
X141091904Y-93019095D01*
X141053809Y-92942905D01*
X141015714Y-92904810D01*
X140939523Y-92866714D01*
X140787142Y-92828619D01*
X140596666Y-92828619D01*
X140444285Y-92866714D01*
X140368095Y-92904810D01*
X140330000Y-92942905D01*
X140291904Y-93019095D01*
X140368095Y-93590524D02*
X140330000Y-93628619D01*
X140291904Y-93704810D01*
X140291904Y-93895286D01*
X140330000Y-93971476D01*
X140368095Y-94009571D01*
X140444285Y-94047667D01*
X140520476Y-94047667D01*
X140634761Y-94009571D01*
X141091904Y-93552429D01*
X141091904Y-94047667D01*
X138551904Y-92523857D02*
X138551904Y-92066714D01*
X138551904Y-92295286D02*
X137751904Y-92295286D01*
X137866190Y-92219095D01*
X137942380Y-92142905D01*
X137980476Y-92066714D01*
X138551904Y-93285762D02*
X138551904Y-92828619D01*
X138551904Y-93057191D02*
X137751904Y-93057191D01*
X137866190Y-92981000D01*
X137942380Y-92904810D01*
X137980476Y-92828619D01*
X137751904Y-94009571D02*
X137751904Y-93628619D01*
X138132857Y-93590524D01*
X138094761Y-93628619D01*
X138056666Y-93704810D01*
X138056666Y-93895286D01*
X138094761Y-93971476D01*
X138132857Y-94009571D01*
X138209047Y-94047667D01*
X138399523Y-94047667D01*
X138475714Y-94009571D01*
X138513809Y-93971476D01*
X138551904Y-93895286D01*
X138551904Y-93704810D01*
X138513809Y-93628619D01*
X138475714Y-93590524D01*
X130131904Y-92257191D02*
X130131904Y-92333381D01*
X130170000Y-92409571D01*
X130208095Y-92447667D01*
X130284285Y-92485762D01*
X130436666Y-92523857D01*
X130627142Y-92523857D01*
X130779523Y-92485762D01*
X130855714Y-92447667D01*
X130893809Y-92409571D01*
X130931904Y-92333381D01*
X130931904Y-92257191D01*
X130893809Y-92181000D01*
X130855714Y-92142905D01*
X130779523Y-92104810D01*
X130627142Y-92066714D01*
X130436666Y-92066714D01*
X130284285Y-92104810D01*
X130208095Y-92142905D01*
X130170000Y-92181000D01*
X130131904Y-92257191D01*
X130931904Y-93285762D02*
X130931904Y-92828619D01*
X130931904Y-93057191D02*
X130131904Y-93057191D01*
X130246190Y-92981000D01*
X130322380Y-92904810D01*
X130360476Y-92828619D01*
X130131904Y-93781000D02*
X130131904Y-93857191D01*
X130170000Y-93933381D01*
X130208095Y-93971476D01*
X130284285Y-94009571D01*
X130436666Y-94047667D01*
X130627142Y-94047667D01*
X130779523Y-94009571D01*
X130855714Y-93971476D01*
X130893809Y-93933381D01*
X130931904Y-93857191D01*
X130931904Y-93781000D01*
X130893809Y-93704810D01*
X130855714Y-93666714D01*
X130779523Y-93628619D01*
X130627142Y-93590524D01*
X130436666Y-93590524D01*
X130284285Y-93628619D01*
X130208095Y-93666714D01*
X130170000Y-93704810D01*
X130131904Y-93781000D01*
X155531904Y-81182810D02*
X155531904Y-81259000D01*
X155570000Y-81335190D01*
X155608095Y-81373286D01*
X155684285Y-81411381D01*
X155836666Y-81449476D01*
X156027142Y-81449476D01*
X156179523Y-81411381D01*
X156255714Y-81373286D01*
X156293809Y-81335190D01*
X156331904Y-81259000D01*
X156331904Y-81182810D01*
X156293809Y-81106619D01*
X156255714Y-81068524D01*
X156179523Y-81030429D01*
X156027142Y-80992333D01*
X155836666Y-80992333D01*
X155684285Y-81030429D01*
X155608095Y-81068524D01*
X155570000Y-81106619D01*
X155531904Y-81182810D01*
X155531904Y-81944714D02*
X155531904Y-82020905D01*
X155570000Y-82097095D01*
X155608095Y-82135190D01*
X155684285Y-82173286D01*
X155836666Y-82211381D01*
X156027142Y-82211381D01*
X156179523Y-82173286D01*
X156255714Y-82135190D01*
X156293809Y-82097095D01*
X156331904Y-82020905D01*
X156331904Y-81944714D01*
X156293809Y-81868524D01*
X156255714Y-81830429D01*
X156179523Y-81792333D01*
X156027142Y-81754238D01*
X155836666Y-81754238D01*
X155684285Y-81792333D01*
X155608095Y-81830429D01*
X155570000Y-81868524D01*
X155531904Y-81944714D01*
X155531904Y-82897095D02*
X155531904Y-82744714D01*
X155570000Y-82668524D01*
X155608095Y-82630429D01*
X155722380Y-82554238D01*
X155874761Y-82516143D01*
X156179523Y-82516143D01*
X156255714Y-82554238D01*
X156293809Y-82592333D01*
X156331904Y-82668524D01*
X156331904Y-82820905D01*
X156293809Y-82897095D01*
X156255714Y-82935190D01*
X156179523Y-82973286D01*
X155989047Y-82973286D01*
X155912857Y-82935190D01*
X155874761Y-82897095D01*
X155836666Y-82820905D01*
X155836666Y-82668524D01*
X155874761Y-82592333D01*
X155912857Y-82554238D01*
X155989047Y-82516143D01*
X151251904Y-92669904D02*
X150870952Y-92403238D01*
X151251904Y-92212761D02*
X150451904Y-92212761D01*
X150451904Y-92517523D01*
X150490000Y-92593714D01*
X150528095Y-92631809D01*
X150604285Y-92669904D01*
X150718571Y-92669904D01*
X150794761Y-92631809D01*
X150832857Y-92593714D01*
X150870952Y-92517523D01*
X150870952Y-92212761D01*
X151213809Y-92974666D02*
X151251904Y-93088952D01*
X151251904Y-93279428D01*
X151213809Y-93355619D01*
X151175714Y-93393714D01*
X151099523Y-93431809D01*
X151023333Y-93431809D01*
X150947142Y-93393714D01*
X150909047Y-93355619D01*
X150870952Y-93279428D01*
X150832857Y-93127047D01*
X150794761Y-93050857D01*
X150756666Y-93012761D01*
X150680476Y-92974666D01*
X150604285Y-92974666D01*
X150528095Y-93012761D01*
X150490000Y-93050857D01*
X150451904Y-93127047D01*
X150451904Y-93317523D01*
X150490000Y-93431809D01*
X150451904Y-93660380D02*
X150451904Y-94117523D01*
X151251904Y-93888952D02*
X150451904Y-93888952D01*
%TD*%
M02*
