M48
; DRILL file {KiCad 5.1.8} date Thu Dec  3 05:05:11 2020
; FORMAT={-:-/ absolute / inch / decimal}
; #@! TF.CreationDate,2020-12-03T05:05:11-06:00
; #@! TF.GenerationSoftware,Kicad,Pcbnew,5.1.8
; #@! TF.FileFunction,Plated,1,2,PTH
FMAT,2
INCH
T1C0.0157
T2C0.0236
T3C0.0394
T4C0.0430
T5C0.0433
%
G90
G05
T1
X3.5197Y-3.7283
X4.4173Y-3.8307
X4.5787Y-2.8701
X4.6687Y-2.9731
X4.7082Y-2.9721
X4.7756Y-3.5315
X4.7795Y-3.7598
X4.2126Y-3.248
X4.2126Y-3.4055
X4.2126Y-3.563
X4.2126Y-3.7205
X4.2126Y-3.878
X4.2126Y-4.0354
X3.6404Y-3.2848
X3.7019Y-3.4298
X3.7635Y-3.5747
X3.825Y-3.7197
X3.8865Y-3.8647
X3.9481Y-4.0096
T3
X2.7358Y-3.174
X2.7358Y-3.274
X2.7358Y-3.374
X2.7358Y-3.474
X2.7358Y-3.574
X5.9252Y-3.9409
X5.9252Y-4.0409
X4.5748Y-3.2874
X4.5748Y-3.3874
X4.5748Y-3.4874
X4.5748Y-3.5874
T4
X5.0406Y-3.1457
X5.0406Y-3.7457
X5.1406Y-3.1457
X5.1406Y-3.7457
X5.2406Y-3.1457
X5.2406Y-3.2457
X5.2406Y-3.3457
X5.2406Y-3.4457
X5.2406Y-3.7457
X5.3406Y-3.1457
X5.3406Y-3.7457
X5.4406Y-3.1457
X5.4406Y-3.7457
X5.5406Y-3.1457
X5.5406Y-3.7457
X5.6406Y-3.1457
X5.6406Y-3.7457
X5.7406Y-3.1457
X5.7406Y-3.7457
X5.8406Y-3.1457
X5.8406Y-3.7457
X5.9406Y-3.1457
X5.9406Y-3.7457
X6.0406Y-3.1457
X6.0406Y-3.7457
X6.1406Y-3.1457
X6.1406Y-3.7457
T5
X2.8819Y-2.624
X2.9102Y-3.0118
X3.0118Y-3.0236
X3.1693Y-3.0236
X3.2709Y-3.0118
X3.2992Y-2.624
X2.9016Y-1.3091
X2.9299Y-1.6969
X3.0315Y-1.7087
X3.189Y-1.7087
X3.2906Y-1.6969
X3.3189Y-1.3091
X5.0276Y-2.5295
X5.0559Y-2.9173
X5.1575Y-2.9291
X5.315Y-2.9291
X5.4165Y-2.9173
X5.4449Y-2.5295
X3.6102Y-1.1909
X3.6386Y-1.5787
X3.7402Y-1.5906
X3.8976Y-1.5906
X3.9992Y-1.5787
X4.0276Y-1.1909
X4.3189Y-2.3327
X4.3472Y-2.7205
X4.4488Y-2.7323
X4.6063Y-2.7323
X4.7079Y-2.7205
X4.7362Y-2.3327
X5.0276Y-1.8602
X5.0559Y-2.248
X5.1575Y-2.2598
X5.315Y-2.2598
X5.4165Y-2.248
X5.4449Y-1.8602
X5.0276Y-1.1909
X5.0559Y-1.5787
X5.1575Y-1.5906
X5.315Y-1.5906
X5.4165Y-1.5787
X5.4449Y-1.1909
X5.7362Y-2.6476
X5.7646Y-3.0354
X5.8661Y-3.0472
X6.0236Y-3.0472
X6.1252Y-3.0354
X6.1535Y-2.6476
X5.7362Y-1.9783
X5.7646Y-2.3661
X5.8661Y-2.378
X6.0236Y-2.378
X6.1252Y-2.3661
X6.1535Y-1.9783
X3.5906Y-2.7028
X3.6189Y-3.0906
X3.7205Y-3.1024
X3.878Y-3.1024
X3.9795Y-3.0906
X4.0079Y-2.7028
X4.3189Y-1.6634
X4.3472Y-2.0512
X4.4488Y-2.063
X4.6063Y-2.063
X4.7079Y-2.0512
X4.7362Y-1.6634
X3.6102Y-1.8602
X3.6386Y-2.248
X3.7402Y-2.2598
X3.8976Y-2.2598
X3.9992Y-2.248
X4.0276Y-1.8602
X2.9016Y-1.9783
X2.9299Y-2.3661
X3.0315Y-2.378
X3.189Y-2.378
X3.2906Y-2.3661
X3.3189Y-1.9783
X4.3189Y-0.9941
X4.3472Y-1.3819
X4.4488Y-1.3937
X4.6063Y-1.3937
X4.7079Y-1.3819
X4.7362Y-0.9941
T2
G00X4.5079Y-4.4055
M15
G01X4.5079Y-4.5394
M16
G05
G00X4.5866Y-4.4055
M15
G01X4.5866Y-4.5394
M16
G05
G00X4.6654Y-4.4055
M15
G01X4.6654Y-4.5394
M16
G05
G00X4.7441Y-4.4055
M15
G01X4.7441Y-4.5394
M16
G05
G00X4.8228Y-4.4055
M15
G01X4.8228Y-4.5394
M16
G05
G00X4.9016Y-4.4055
M15
G01X4.9016Y-4.5394
M16
G05
G00X4.9803Y-4.4055
M15
G01X4.9803Y-4.5394
M16
G05
G00X5.0591Y-4.4055
M15
G01X5.0591Y-4.5394
M16
G05
G00X5.1378Y-4.4055
M15
G01X5.1378Y-4.5394
M16
G05
G00X5.2165Y-4.4055
M15
G01X5.2165Y-4.5394
M16
G05
G00X5.2953Y-4.4055
M15
G01X5.2953Y-4.5394
M16
G05
G00X5.374Y-4.4055
M15
G01X5.374Y-4.5394
M16
G05
G00X5.4528Y-4.4055
M15
G01X5.4528Y-4.5394
M16
G05
G00X5.5315Y-4.4055
M15
G01X5.5315Y-4.5394
M16
G05
G00X5.6102Y-4.4055
M15
G01X5.6102Y-4.5394
M16
G05
G00X5.689Y-4.4055
M15
G01X5.689Y-4.5394
M16
G05
G00X5.7677Y-4.4055
M15
G01X5.7677Y-4.5394
M16
G05
G00X5.8465Y-4.4055
M15
G01X5.8465Y-4.5394
M16
G05
G00X5.9252Y-4.4055
M15
G01X5.9252Y-4.5394
M16
G05
G00X6.0039Y-4.4055
M15
G01X6.0039Y-4.5394
M16
G05
G00X4.5079Y-4.185
M15
G01X4.5079Y-4.3189
M16
G05
G00X4.5866Y-4.185
M15
G01X4.5866Y-4.3189
M16
G05
G00X4.6654Y-4.185
M15
G01X4.6654Y-4.3189
M16
G05
G00X4.7441Y-4.185
M15
G01X4.7441Y-4.3189
M16
G05
G00X4.8228Y-4.185
M15
G01X4.8228Y-4.3189
M16
G05
G00X4.9016Y-4.185
M15
G01X4.9016Y-4.3189
M16
G05
G00X4.9803Y-4.185
M15
G01X4.9803Y-4.3189
M16
G05
G00X5.0591Y-4.185
M15
G01X5.0591Y-4.3189
M16
G05
G00X5.1378Y-4.185
M15
G01X5.1378Y-4.3189
M16
G05
G00X5.2165Y-4.185
M15
G01X5.2165Y-4.3189
M16
G05
G00X5.2953Y-4.185
M15
G01X5.2953Y-4.3189
M16
G05
G00X5.374Y-4.185
M15
G01X5.374Y-4.3189
M16
G05
G00X5.4528Y-4.185
M15
G01X5.4528Y-4.3189
M16
G05
G00X5.5315Y-4.185
M15
G01X5.5315Y-4.3189
M16
G05
G00X5.6102Y-4.185
M15
G01X5.6102Y-4.3189
M16
G05
G00X5.689Y-4.185
M15
G01X5.689Y-4.3189
M16
G05
G00X5.7677Y-4.185
M15
G01X5.7677Y-4.3189
M16
G05
G00X5.8465Y-4.185
M15
G01X5.8465Y-4.3189
M16
G05
G00X5.9252Y-4.185
M15
G01X5.9252Y-4.3189
M16
G05
G00X6.0039Y-4.185
M15
G01X6.0039Y-4.3189
M16
G05
T0
M30
